<svg xmlns="http://www.w3.org/2000/svg" width="303" height="383" viewBox="0 0 303 383"><g><g><path fill="#fff" d="M280.583 105.924l-7.012-26.074-85.589 23.018 54.333-70.097-21.339-16.541-55.802 71.992V.012h-27v86.06L83.1 16.188 61.894 32.9l55.202 70.046-87.373-23.111-6.904 26.102 115.355 30.513v90.019h27v-89.508z"/></g><g><path fill="#fff" d="M.54 323.099h7.105V293.49H.54v-5.922h20.133v5.922h-7.105v29.608h7.105v5.922H.54z"/></g><g><path fill="#fff" d="M29.256 287.569H44.06c11.429 0 20.725 9.298 20.725 20.726 0 11.429-9.296 20.726-20.725 20.726H29.256zm5.922 35.53h8.883c8.17 0 14.804-6.632 14.804-14.804 0-8.173-6.633-14.804-14.804-14.804h-8.883z"/></g><g><path fill="#fff" d="M72.479 287.568h30.2v5.922H78.4v11.844h21.319v5.921H78.4v11.843h24.279v5.922h-30.2z"/></g><g><path fill="#fff" d="M146.792 293.312v-5.744h5.922v41.452h-5.922v-5.744c-4.027 4.264-9.712 6.928-15.989 6.928-12.08 0-21.91-9.829-21.91-21.909 0-12.08 9.83-21.91 21.91-21.91 6.277 0 11.962 2.664 15.99 6.927zm0 14.983c0-8.823-7.165-15.99-15.989-15.99-8.823 0-15.988 7.167-15.988 15.99 0 8.822 7.165 15.99 15.988 15.99 8.824 0 15.99-7.168 15.99-15.99z"/></g><g><path fill="#fff" d="M161.592 329.02V287.57h5.92v35.53h24.28v5.922z"/></g><g><path fill="#fff" d="M198.893 323.099h7.105V293.49h-7.105v-5.922h20.133v5.922h-7.106v29.608h7.106v5.922h-20.133z"/></g><g><path fill="#fff" d="M233.531 316.586v1.184c0 3.612 3.85 6.514 10.658 6.514 6.81 0 10.658-2.902 10.658-6.514 0-10.246-28.423-1.66-28.423-18.358 0-7.461 6.752-13.027 17.765-13.027 11.014 0 17.766 5.566 17.766 13.027v1.185h-5.922v-1.185c0-4.204-4.44-7.106-11.844-7.106-7.402 0-11.844 2.902-11.844 7.106 0 9.653 28.424 1.658 28.424 18.358 0 6.868-6.158 12.434-16.58 12.434-10.423 0-16.58-5.566-16.58-12.434v-1.184z"/></g><g><path fill="#fff" d="M282.38 293.49h-14.508v-5.922h34.937v5.922H288.3v35.53h-5.921z"/></g><g><path fill="#fff" d="M97.562 358.663c3.324 0 6.322 1.37 8.505 3.553l-2.28 2.28a8.8 8.8 0 0 0-6.225-2.573c-4.855 0-8.798 3.942-8.798 8.798 0 4.855 3.943 8.798 8.798 8.798a8.8 8.8 0 0 0 6.225-2.574l2.28 2.314a11.967 11.967 0 0 1-8.505 3.52c-6.648 0-12.057-5.41-12.057-12.058s5.409-12.058 12.057-12.058z"/></g><g><path fill="#fff" d="M133.278 370.72c0 6.65-5.41 12.058-12.058 12.058-6.647 0-12.057-5.409-12.057-12.058 0-6.647 5.41-12.057 12.057-12.057 6.648 0 12.058 5.41 12.058 12.057zm-3.259 0c0-4.855-3.943-8.798-8.799-8.798-4.855 0-8.798 3.943-8.798 8.798 0 4.856 3.943 8.8 8.798 8.8 4.856 0 8.8-3.943 8.8-8.8z"/></g><g><path fill="#fff" d="M141.425 382.127h-3.259v-22.812h15.967v3.259h-12.708v6.517h9.45v3.26h-9.45z"/></g><g><path fill="#fff" d="M161.956 382.127h-3.26v-22.812h15.97v3.259h-12.71v6.517h9.45v3.26h-9.45z"/></g><g><path fill="#fff" d="M179.227 359.315h16.62v3.26h-13.36v6.515h11.73v3.26h-11.73v6.517h13.36v3.26h-16.62z"/></g><g><path fill="#fff" d="M201.223 359.315h16.62v3.26h-13.36v6.515h11.73v3.26h-11.73v6.517h13.36v3.26h-16.62z"/></g></g></svg>